<?xml version="1.0" encoding="UTF-8" standalone="no"?>
<!DOCTYPE svg PUBLIC "-//W3C//DTD SVG 1.1//EN"
 "http://www.w3.org/Graphics/SVG/1.1/DTD/svg11.dtd">
<!-- Generated by graphviz version 2.40.1 (20161225.0304)
 -->
<!-- Title: %3 Pages: 1 -->
<svg width="368pt" height="291pt"
 viewBox="0.00 0.00 368.12 291.48" xmlns="http://www.w3.org/2000/svg" xmlns:xlink="http://www.w3.org/1999/xlink">
<g id="graph0" class="graph" transform="scale(1 1) rotate(0) translate(4 287.4752)">
<title>%3</title>
<polygon fill="#333333" stroke="transparent" points="-4,4 -4,-287.4752 364.1213,-287.4752 364.1213,4 -4,4"/>
<text text-anchor="middle" x="180.0607" y="-9.2" font-family="Times,serif" font-size="16.00" fill="#ffffff">LLDP Network Map</text>
<!-- r2 -->
<g id="node1" class="node">
<title>r2</title>
<ellipse fill="#006699" stroke="#006699" cx="76.1213" cy="-77.6188" rx="51.7379" ry="51.7379"/>
<text text-anchor="middle" x="76.1213" y="-73.9188" font-family="Helvetica,sans-Serif" font-size="14.00" fill="#ffffff">r2</text>
</g>
<!-- r5 -->
<g id="node3" class="node">
<title>r5</title>
<ellipse fill="#006699" stroke="#006699" cx="95.1213" cy="-231.8564" rx="51.7379" ry="51.7379"/>
<text text-anchor="middle" x="95.1213" y="-228.1564" font-family="Helvetica,sans-Serif" font-size="14.00" fill="#ffffff">r5</text>
</g>
<!-- r2&#45;&#45;r5 -->
<g id="edge2" class="edge">
<title>r2&#45;&#45;r5</title>
<path fill="none" stroke="#00ff00" stroke-dasharray="5,2" d="M32,-105.4874C13.3865,-120.9932 -1.9191,-141.3437 8.1213,-162.2376 17.0028,-180.7198 33.4453,-195.8325 49.6646,-207.1972"/>
<text text-anchor="middle" x="46.1213" y="-151.0376" font-family="Courier,monospace" font-size="14.00" fill="#ffffff"> &#160;&#160;&#160;&#160;&#160;&#160;&#160;&#160;&#160;&#160;&#160;</text>
<text text-anchor="middle" x="33.6646" y="-195.9972" font-family="Courier,monospace" font-size="14.00" fill="#ffffff">Et0/3</text>
<text text-anchor="middle" x="16" y="-94.2874" font-family="Courier,monospace" font-size="14.00" fill="#ffffff">Et0/2</text>
</g>
<!-- r6 -->
<g id="node4" class="node">
<title>r6</title>
<ellipse fill="#006699" stroke="#006699" cx="260.1213" cy="-231.8564" rx="51.7379" ry="51.7379"/>
<text text-anchor="middle" x="260.1213" y="-228.1564" font-family="Helvetica,sans-Serif" font-size="14.00" fill="#ffffff">r6</text>
</g>
<!-- r2&#45;&#45;r6 -->
<g id="edge1" class="edge">
<title>r2&#45;&#45;r6</title>
<path fill="none" stroke="#00ff00" stroke-dasharray="5,2" d="M84.1634,-128.807C88.165,-140.9978 94.1553,-153.1039 103.1213,-162.2376 120.5482,-179.9905 133.1509,-170.6864 156.1213,-180.2376 175.5712,-188.3249 196.4716,-198.411 214.3973,-207.5163"/>
<text text-anchor="middle" x="141.1213" y="-151.0376" font-family="Courier,monospace" font-size="14.00" fill="#ffffff"> &#160;&#160;&#160;&#160;&#160;&#160;&#160;&#160;&#160;&#160;&#160;</text>
<text text-anchor="middle" x="198.3973" y="-196.3163" font-family="Courier,monospace" font-size="14.00" fill="#ffffff">Et1/1</text>
<text text-anchor="middle" x="68.1634" y="-132.607" font-family="Courier,monospace" font-size="14.00" fill="#ffffff">Et0/1</text>
</g>
<!-- r1 -->
<g id="node2" class="node">
<title>r1</title>
<ellipse fill="#006699" stroke="#006699" cx="235.1213" cy="-77.6188" rx="51.7379" ry="51.7379"/>
<text text-anchor="middle" x="235.1213" y="-73.9188" font-family="Helvetica,sans-Serif" font-size="14.00" fill="#ffffff">r1</text>
</g>
<!-- r1&#45;&#45;r5 -->
<g id="edge4" class="edge">
<title>r1&#45;&#45;r5</title>
<path fill="none" stroke="#00ff00" stroke-dasharray="5,2" d="M210.8829,-123.5797C202.9134,-136.7317 193.4269,-150.6349 183.1213,-162.2376 169.9259,-177.0939 153.2754,-191.1637 138.0178,-202.7153"/>
<text text-anchor="middle" x="232.1213" y="-151.0376" font-family="Courier,monospace" font-size="14.00" fill="#ffffff"> &#160;&#160;&#160;&#160;&#160;&#160;&#160;&#160;&#160;&#160;&#160;</text>
<text text-anchor="middle" x="154.0178" y="-191.5153" font-family="Courier,monospace" font-size="14.00" fill="#ffffff">Et0/2</text>
<text text-anchor="middle" x="194.8829" y="-127.3797" font-family="Courier,monospace" font-size="14.00" fill="#ffffff">Et0/2</text>
</g>
<!-- r1&#45;&#45;r6 -->
<g id="edge3" class="edge">
<title>r1&#45;&#45;r6</title>
<path fill="none" stroke="#00ff00" stroke-dasharray="5,2" d="M268.061,-117.8774C273.8467,-127.0226 279.0067,-137.0577 282.1213,-147.2376 285.8073,-159.285 284.7905,-172.4154 281.733,-184.6601"/>
<text text-anchor="middle" x="322.1213" y="-151.0376" font-family="Courier,monospace" font-size="14.00" fill="#ffffff"> &#160;&#160;&#160;&#160;&#160;&#160;&#160;&#160;&#160;&#160;&#160;</text>
<text text-anchor="middle" x="297.733" y="-173.4601" font-family="Courier,monospace" font-size="14.00" fill="#ffffff">Et1/0</text>
<text text-anchor="middle" x="284.061" y="-121.6774" font-family="Courier,monospace" font-size="14.00" fill="#ffffff">Et0/1</text>
</g>
</g>
</svg>
