<?xml version="1.0" encoding="UTF-8" standalone="no"?>
<!DOCTYPE svg PUBLIC "-//W3C//DTD SVG 1.1//EN"
 "http://www.w3.org/Graphics/SVG/1.1/DTD/svg11.dtd">
<!-- Generated by graphviz version 2.40.1 (20161225.0304)
 -->
<!-- Title: %3 Pages: 1 -->
<svg width="784pt" height="291pt"
 viewBox="0.00 0.00 783.62 291.48" xmlns="http://www.w3.org/2000/svg" xmlns:xlink="http://www.w3.org/1999/xlink">
<g id="graph0" class="graph" transform="scale(1 1) rotate(0) translate(4 287.4752)">
<title>%3</title>
<polygon fill="#333333" stroke="transparent" points="-4,4 -4,-287.4752 779.6188,-287.4752 779.6188,4 -4,4"/>
<text text-anchor="middle" x="387.8094" y="-9.2" font-family="Times,serif" font-size="16.00" fill="#ffffff">LLDP Network Map</text>
<!-- r3 -->
<g id="node1" class="node">
<title>r3</title>
<ellipse fill="#006699" stroke="#006699" cx="422.6188" cy="-231.8564" rx="51.7379" ry="51.7379"/>
<text text-anchor="middle" x="422.6188" y="-228.1564" font-family="Helvetica,sans-Serif" font-size="14.00" fill="#ffffff">r3</text>
</g>
<!-- r6 -->
<g id="node2" class="node">
<title>r6</title>
<ellipse fill="#006699" stroke="#006699" cx="279.6188" cy="-77.6188" rx="51.7379" ry="51.7379"/>
<text text-anchor="middle" x="279.6188" y="-73.9188" font-family="Helvetica,sans-Serif" font-size="14.00" fill="#ffffff">r6</text>
</g>
<!-- r6&#45;&#45;r3 -->
<g id="edge5" class="edge">
<title>r6&#45;&#45;r3</title>
<path fill="none" stroke="#00ff00" stroke-dasharray="5,2" d="M305.6609,-122.5749C314.3803,-135.9782 324.6873,-150.2721 335.6188,-162.2376 348.7971,-176.6624 365.1189,-190.5416 380.0525,-202.0605"/>
<text text-anchor="middle" x="373.6188" y="-151.0376" font-family="Courier,monospace" font-size="14.00" fill="#ffffff"> &#160;&#160;&#160;&#160;&#160;&#160;&#160;&#160;&#160;&#160;&#160;</text>
<text text-anchor="middle" x="364.0525" y="-190.8605" font-family="Courier,monospace" font-size="14.00" fill="#ffffff">Et0/2</text>
<text text-anchor="middle" x="321.6609" y="-126.3749" font-family="Courier,monospace" font-size="14.00" fill="#ffffff">Et0/1</text>
</g>
<!-- r1 -->
<g id="node3" class="node">
<title>r1</title>
<ellipse fill="#006699" stroke="#006699" cx="199.6188" cy="-231.8564" rx="51.7379" ry="51.7379"/>
<text text-anchor="middle" x="199.6188" y="-228.1564" font-family="Helvetica,sans-Serif" font-size="14.00" fill="#ffffff">r1</text>
</g>
<!-- r6&#45;&#45;r1 -->
<g id="edge7" class="edge">
<title>r6&#45;&#45;r1</title>
<path fill="none" stroke="#00ff00" stroke-dasharray="5,2" d="M228.9948,-88.0713C196.7875,-97.6239 157.519,-115.3178 137.6188,-147.2376 125.864,-166.0922 139.3939,-186.1939 156.7787,-202.072"/>
<text text-anchor="middle" x="175.6188" y="-151.0376" font-family="Courier,monospace" font-size="14.00" fill="#ffffff"> &#160;&#160;&#160;&#160;&#160;&#160;&#160;&#160;&#160;&#160;&#160;</text>
<text text-anchor="middle" x="140.7787" y="-190.872" font-family="Courier,monospace" font-size="14.00" fill="#ffffff">Et0/1</text>
<text text-anchor="middle" x="212.9948" y="-76.8713" font-family="Courier,monospace" font-size="14.00" fill="#ffffff">Et1/0</text>
</g>
<!-- r4 -->
<g id="node4" class="node">
<title>r4</title>
<ellipse fill="#006699" stroke="#006699" cx="51.6188" cy="-231.8564" rx="51.7379" ry="51.7379"/>
<text text-anchor="middle" x="51.6188" y="-228.1564" font-family="Helvetica,sans-Serif" font-size="14.00" fill="#ffffff">r4</text>
</g>
<!-- r6&#45;&#45;r4 -->
<g id="edge8" class="edge">
<title>r6&#45;&#45;r4</title>
<path fill="none" stroke="#00ff00" stroke-dasharray="5,2" d="M228.6863,-86.2402C168.7964,-97.5237 74.8318,-119.2055 53.6188,-147.2376 46.4362,-156.7291 43.5986,-168.6856 43.0755,-180.5972"/>
<text text-anchor="middle" x="91.6188" y="-151.0376" font-family="Courier,monospace" font-size="14.00" fill="#ffffff"> &#160;&#160;&#160;&#160;&#160;&#160;&#160;&#160;&#160;&#160;&#160;</text>
<text text-anchor="middle" x="27.0755" y="-169.3972" font-family="Courier,monospace" font-size="14.00" fill="#ffffff">Et0/2</text>
<text text-anchor="middle" x="212.6863" y="-90.0402" font-family="Courier,monospace" font-size="14.00" fill="#ffffff">Et0/3</text>
</g>
<!-- r2 -->
<g id="node6" class="node">
<title>r2</title>
<ellipse fill="#006699" stroke="#006699" cx="631.6188" cy="-231.8564" rx="51.7379" ry="51.7379"/>
<text text-anchor="middle" x="631.6188" y="-228.1564" font-family="Helvetica,sans-Serif" font-size="14.00" fill="#ffffff">r2</text>
</g>
<!-- r6&#45;&#45;r2 -->
<g id="edge6" class="edge">
<title>r6&#45;&#45;r2</title>
<path fill="none" stroke="#00ff00" stroke-dasharray="5,2" d="M328.1566,-96.1577C356.8268,-106.7023 393.985,-119.6706 427.6188,-129.2376 463.0899,-139.3272 474.9376,-132.2183 508.6188,-147.2376 519.0942,-151.9088 520.2149,-155.6709 529.6188,-162.2376 548.955,-175.7399 570.5065,-190.4925 588.7996,-202.9279"/>
<text text-anchor="middle" x="567.6188" y="-151.0376" font-family="Courier,monospace" font-size="14.00" fill="#ffffff"> &#160;&#160;&#160;&#160;&#160;&#160;&#160;&#160;&#160;&#160;&#160;</text>
<text text-anchor="middle" x="572.7996" y="-191.7279" font-family="Courier,monospace" font-size="14.00" fill="#ffffff">Et0/1</text>
<text text-anchor="middle" x="344.1566" y="-84.9577" font-family="Courier,monospace" font-size="14.00" fill="#ffffff">Et1/1</text>
</g>
<!-- r5 -->
<g id="node5" class="node">
<title>r5</title>
<ellipse fill="#006699" stroke="#006699" cx="488.6188" cy="-77.6188" rx="51.7379" ry="51.7379"/>
<text text-anchor="middle" x="488.6188" y="-73.9188" font-family="Helvetica,sans-Serif" font-size="14.00" fill="#ffffff">r5</text>
</g>
<!-- r5&#45;&#45;r3 -->
<g id="edge1" class="edge">
<title>r5&#45;&#45;r3</title>
<path fill="none" stroke="#00ff00" stroke-dasharray="5,2" d="M538.8052,-90.8346C581.5457,-104.693 632.6549,-129.0807 609.6188,-162.2376 605.4556,-168.2298 525.7586,-196.4949 471.7646,-215.1167"/>
<text text-anchor="middle" x="652.6188" y="-151.0376" font-family="Courier,monospace" font-size="14.00" fill="#ffffff"> &#160;&#160;&#160;&#160;&#160;&#160;&#160;&#160;&#160;&#160;&#160;</text>
<text text-anchor="middle" x="487.7646" y="-203.9167" font-family="Courier,monospace" font-size="14.00" fill="#ffffff">Et0/1</text>
<text text-anchor="middle" x="554.8052" y="-79.6346" font-family="Courier,monospace" font-size="14.00" fill="#ffffff">Et1/0</text>
</g>
<!-- r5&#45;&#45;r1 -->
<g id="edge3" class="edge">
<title>r5&#45;&#45;r1</title>
<path fill="none" stroke="#00ff00" stroke-dasharray="5,2" d="M458.1224,-119.3727C445.2206,-134.6243 429.1219,-150.8973 411.6188,-162.2376 404.5576,-166.8125 309.424,-197.2472 249.022,-216.3315"/>
<text text-anchor="middle" x="466.6188" y="-151.0376" font-family="Courier,monospace" font-size="14.00" fill="#ffffff"> &#160;&#160;&#160;&#160;&#160;&#160;&#160;&#160;&#160;&#160;&#160;</text>
<text text-anchor="middle" x="265.022" y="-205.1315" font-family="Courier,monospace" font-size="14.00" fill="#ffffff">Et0/2</text>
<text text-anchor="middle" x="442.1224" y="-123.1727" font-family="Courier,monospace" font-size="14.00" fill="#ffffff">Et0/2</text>
</g>
<!-- r5&#45;&#45;r4 -->
<g id="edge4" class="edge">
<title>r5&#45;&#45;r4</title>
<path fill="none" stroke="#00ff00" stroke-dasharray="5,2" d="M440.5423,-96.4973C411.8707,-107.223 374.5554,-120.26 340.6188,-129.2376 297.8073,-140.563 284.5207,-132.9087 242.6188,-147.2376 228.8885,-151.9329 227.2176,-157.1741 213.6188,-162.2376 181.4936,-174.1994 170.3827,-167.347 138.6188,-180.2376 123.6471,-186.3135 108.2002,-194.6889 94.5533,-202.9264"/>
<text text-anchor="middle" x="280.6188" y="-151.0376" font-family="Courier,monospace" font-size="14.00" fill="#ffffff"> &#160;&#160;&#160;&#160;&#160;&#160;&#160;&#160;&#160;&#160;&#160;</text>
<text text-anchor="middle" x="110.5533" y="-206.7264" font-family="Courier,monospace" font-size="14.00" fill="#ffffff">Et0/1</text>
<text text-anchor="middle" x="424.5423" y="-85.2973" font-family="Courier,monospace" font-size="14.00" fill="#ffffff">Et1/1</text>
</g>
<!-- r5&#45;&#45;r2 -->
<g id="edge2" class="edge">
<title>r5&#45;&#45;r2</title>
<path fill="none" stroke="#00ff00" stroke-dasharray="5,2" d="M539.3375,-87.7254C594.1764,-99.804 676.2406,-121.6273 694.6188,-147.2376 707.9666,-165.838 693.259,-186.4486 674.7116,-202.6717"/>
<text text-anchor="middle" x="737.6188" y="-151.0376" font-family="Courier,monospace" font-size="14.00" fill="#ffffff"> &#160;&#160;&#160;&#160;&#160;&#160;&#160;&#160;&#160;&#160;&#160;</text>
<text text-anchor="middle" x="690.7116" y="-191.4717" font-family="Courier,monospace" font-size="14.00" fill="#ffffff">Et0/2</text>
<text text-anchor="middle" x="555.3375" y="-91.5254" font-family="Courier,monospace" font-size="14.00" fill="#ffffff">Et0/3</text>
</g>
</g>
</svg>
