<?xml version="1.0" encoding="UTF-8" standalone="no"?>
<!DOCTYPE svg PUBLIC "-//W3C//DTD SVG 1.1//EN"
 "http://www.w3.org/Graphics/SVG/1.1/DTD/svg11.dtd">
<!-- Generated by graphviz version 2.40.1 (20161225.0304)
 -->
<!-- Title: %3 Pages: 1 -->
<svg width="314pt" height="600pt"
 viewBox="0.00 0.00 313.62 599.95" xmlns="http://www.w3.org/2000/svg" xmlns:xlink="http://www.w3.org/1999/xlink">
<g id="graph0" class="graph" transform="scale(1 1) rotate(0) translate(4 595.9504)">
<title>%3</title>
<polygon fill="#333333" stroke="transparent" points="-4,4 -4,-595.9504 309.6188,-595.9504 309.6188,4 -4,4"/>
<text text-anchor="middle" x="152.8094" y="-9.2" font-family="Times,serif" font-size="16.00" fill="#ffffff">LLDP Network Map</text>
<!-- r6 -->
<g id="node1" class="node">
<title>r6</title>
<ellipse fill="#006699" stroke="#006699" cx="111.6188" cy="-77.6188" rx="51.7379" ry="51.7379"/>
<text text-anchor="middle" x="111.6188" y="-73.9188" font-family="Helvetica,sans-Serif" font-size="14.00" fill="#ffffff">r6</text>
</g>
<!-- r5 -->
<g id="node2" class="node">
<title>r5</title>
<ellipse fill="#006699" stroke="#006699" cx="111.6188" cy="-231.8564" rx="51.7379" ry="51.7379"/>
<text text-anchor="middle" x="111.6188" y="-228.1564" font-family="Helvetica,sans-Serif" font-size="14.00" fill="#ffffff">r5</text>
</g>
<!-- r6&#45;&#45;r5 -->
<g id="edge1" class="edge">
<title>r6&#45;&#45;r5</title>
<path fill="none" stroke="#00ff00" stroke-dasharray="5,2" d="M78.2289,-117.4209C72.2212,-126.6715 66.8481,-136.8647 63.6188,-147.2376 58.4477,-163.8477 65.208,-180.79 75.1357,-195.1083"/>
<text text-anchor="middle" x="101.6188" y="-151.0376" font-family="Courier,monospace" font-size="14.00" fill="#ffffff"> &#160;&#160;&#160;&#160;&#160;&#160;&#160;&#160;&#160;&#160;&#160;</text>
<text text-anchor="middle" x="59.1357" y="-183.9083" font-family="Courier,monospace" font-size="14.00" fill="#ffffff">Et1/0</text>
<text text-anchor="middle" x="62.2289" y="-121.2209" font-family="Courier,monospace" font-size="14.00" fill="#ffffff">Et0/2</text>
</g>
<!-- r6&#45;&#45;r5 -->
<g id="edge2" class="edge">
<title>r6&#45;&#45;r5</title>
<path fill="none" stroke="#00ff00" stroke-dasharray="5,2" d="M133.3814,-124.8232C135.9604,-132.1889 138.1829,-139.8193 139.6188,-147.2376 142.0889,-159.999 139.9234,-173.4963 135.8984,-185.8726"/>
<text text-anchor="middle" x="178.6188" y="-151.0376" font-family="Courier,monospace" font-size="14.00" fill="#ffffff"> &#160;&#160;&#160;&#160;&#160;&#160;&#160;&#160;&#160;&#160;&#160;</text>
<text text-anchor="middle" x="151.8984" y="-174.6726" font-family="Courier,monospace" font-size="14.00" fill="#ffffff">Et0/1</text>
<text text-anchor="middle" x="149.3814" y="-128.6232" font-family="Courier,monospace" font-size="14.00" fill="#ffffff">Et0/1</text>
</g>
<!-- r1 -->
<g id="node3" class="node">
<title>r1</title>
<ellipse fill="#006699" stroke="#006699" cx="51.6188" cy="-386.094" rx="51.7379" ry="51.7379"/>
<text text-anchor="middle" x="51.6188" y="-382.394" font-family="Helvetica,sans-Serif" font-size="14.00" fill="#ffffff">r1</text>
</g>
<!-- r5&#45;&#45;r1 -->
<g id="edge4" class="edge">
<title>r5&#45;&#45;r1</title>
<path fill="none" stroke="#00ff00" stroke-dasharray="5,2" d="M82.0649,-274.4326C76.9982,-283.0963 72.2162,-292.3569 68.6188,-301.4752 64.4944,-311.9292 61.3275,-323.5207 58.9111,-334.686"/>
<text text-anchor="middle" x="106.6188" y="-305.2752" font-family="Courier,monospace" font-size="14.00" fill="#ffffff"> &#160;&#160;&#160;&#160;&#160;&#160;&#160;&#160;&#160;&#160;&#160;</text>
<text text-anchor="middle" x="42.9111" y="-323.486" font-family="Courier,monospace" font-size="14.00" fill="#ffffff">Et0/1</text>
<text text-anchor="middle" x="66.0649" y="-278.2326" font-family="Courier,monospace" font-size="14.00" fill="#ffffff">Et0/3</text>
</g>
<!-- r3 -->
<g id="node4" class="node">
<title>r3</title>
<ellipse fill="#006699" stroke="#006699" cx="172.6188" cy="-386.094" rx="51.7379" ry="51.7379"/>
<text text-anchor="middle" x="172.6188" y="-382.394" font-family="Helvetica,sans-Serif" font-size="14.00" fill="#ffffff">r3</text>
</g>
<!-- r5&#45;&#45;r3 -->
<g id="edge3" class="edge">
<title>r5&#45;&#45;r3</title>
<path fill="none" stroke="#00ff00" stroke-dasharray="5,2" d="M134.6083,-278.3172C138.1219,-285.9841 141.5841,-293.9014 144.6188,-301.4752 149.108,-312.6791 153.461,-324.9111 157.344,-336.5047"/>
<text text-anchor="middle" x="187.6188" y="-305.2752" font-family="Courier,monospace" font-size="14.00" fill="#ffffff"> &#160;&#160;&#160;&#160;&#160;&#160;&#160;&#160;&#160;&#160;&#160;</text>
<text text-anchor="middle" x="141.344" y="-325.3047" font-family="Courier,monospace" font-size="14.00" fill="#ffffff">Et0/1</text>
<text text-anchor="middle" x="150.6083" y="-282.1172" font-family="Courier,monospace" font-size="14.00" fill="#ffffff">Et0/2</text>
</g>
<!-- r2 -->
<g id="node5" class="node">
<title>r2</title>
<ellipse fill="#006699" stroke="#006699" cx="150.6188" cy="-540.3316" rx="51.7379" ry="51.7379"/>
<text text-anchor="middle" x="150.6188" y="-536.6316" font-family="Helvetica,sans-Serif" font-size="14.00" fill="#ffffff">r2</text>
</g>
<!-- r1&#45;&#45;r2 -->
<g id="edge7" class="edge">
<title>r1&#45;&#45;r2</title>
<path fill="none" stroke="#00ff00" stroke-dasharray="5,2" d="M57.0618,-437.7611C59.7419,-449.146 63.7204,-460.765 69.6188,-470.7128 78.9815,-486.5032 93.2163,-500.4923 107.1549,-511.7118"/>
<text text-anchor="middle" x="107.6188" y="-459.5128" font-family="Courier,monospace" font-size="14.00" fill="#ffffff"> &#160;&#160;&#160;&#160;&#160;&#160;&#160;&#160;&#160;&#160;&#160;</text>
<text text-anchor="middle" x="91.1549" y="-500.5118" font-family="Courier,monospace" font-size="14.00" fill="#ffffff">Et0/3</text>
<text text-anchor="middle" x="41.0618" y="-441.5611" font-family="Courier,monospace" font-size="14.00" fill="#ffffff">Et0/2</text>
</g>
<!-- r3&#45;&#45;r2 -->
<g id="edge5" class="edge">
<title>r3&#45;&#45;r2</title>
<path fill="none" stroke="#00ff00" stroke-dasharray="5,2" d="M155.9607,-435.1406C154.1863,-441.9813 152.6537,-448.9745 151.6188,-455.7128 149.9907,-466.3135 149.2099,-477.7492 148.9254,-488.6817"/>
<text text-anchor="middle" x="189.6188" y="-459.5128" font-family="Courier,monospace" font-size="14.00" fill="#ffffff"> &#160;&#160;&#160;&#160;&#160;&#160;&#160;&#160;&#160;&#160;&#160;</text>
<text text-anchor="middle" x="132.9254" y="-477.4817" font-family="Courier,monospace" font-size="14.00" fill="#ffffff">Et0/1</text>
<text text-anchor="middle" x="139.9607" y="-438.9406" font-family="Courier,monospace" font-size="14.00" fill="#ffffff">Et0/3</text>
</g>
<!-- r3&#45;&#45;r2 -->
<g id="edge6" class="edge">
<title>r3&#45;&#45;r2</title>
<path fill="none" stroke="#00ff00" stroke-dasharray="5,2" d="M212.8071,-419.2704C226.0501,-434.3388 235.5821,-452.7773 227.6188,-470.7128 220.4518,-486.8548 207.4881,-500.8403 194.216,-511.955"/>
<text text-anchor="middle" x="267.6188" y="-459.5128" font-family="Courier,monospace" font-size="14.00" fill="#ffffff"> &#160;&#160;&#160;&#160;&#160;&#160;&#160;&#160;&#160;&#160;&#160;</text>
<text text-anchor="middle" x="210.216" y="-500.755" font-family="Courier,monospace" font-size="14.00" fill="#ffffff">Et0/2</text>
<text text-anchor="middle" x="228.8071" y="-408.0704" font-family="Courier,monospace" font-size="14.00" fill="#ffffff">Et0/2</text>
</g>
</g>
</svg>
